<svg width="59" height="60" viewBox="0 0 59 60" fill="none" xmlns="http://www.w3.org/2000/svg">
<path d="M57.8068 30C57.8068 46.039 45.1193 59 29.5186 59C13.918 59 1.2305 46.039 1.2305 30C1.2305 13.961 13.918 1 29.5186 1C45.1193 1 57.8068 13.961 57.8068 30Z" stroke="#234CAD" stroke-width="2"/>
<path d="M22.0102 23.3333C22.0102 23.8856 22.4579 24.3333 23.0102 24.3333C23.5624 24.3333 24.0102 23.8856 24.0102 23.3333H22.0102ZM24.0102 20C24.0102 19.4477 23.5624 19 23.0102 19C22.4579 19 22.0102 19.4477 22.0102 20H24.0102ZM26.3492 23.3333C26.3492 23.8856 26.7969 24.3333 27.3492 24.3333C27.9014 24.3333 28.3492 23.8856 28.3492 23.3333H26.3492ZM28.3492 20C28.3492 19.4477 27.9014 19 27.3492 19C26.7969 19 26.3492 19.4477 26.3492 20H28.3492ZM30.6881 23.3333C30.6881 23.8856 31.1359 24.3333 31.6881 24.3333C32.2404 24.3333 32.6881 23.8856 32.6881 23.3333H30.6881ZM32.6881 20C32.6881 19.4477 32.2404 19 31.6881 19C31.1359 19 30.6881 19.4477 30.6881 20H32.6881ZM35.0271 23.3333C35.0271 23.8856 35.4748 24.3333 36.0271 24.3333C36.5794 24.3333 37.0271 23.8856 37.0271 23.3333H35.0271ZM37.0271 20C37.0271 19.4477 36.5794 19 36.0271 19C35.4748 19 35.0271 19.4477 35.0271 20H37.0271ZM39.2813 28.7778C39.8336 28.7778 40.2813 28.33 40.2813 27.7778C40.2813 27.2255 39.8336 26.7778 39.2813 26.7778V28.7778ZM19.756 26.7778C19.2037 26.7778 18.756 27.2255 18.756 27.7778C18.756 28.33 19.2037 28.7778 19.756 28.7778V26.7778ZM24.0102 23.3333V20H22.0102V23.3333H24.0102ZM28.3492 23.3333V20H26.3492V23.3333H28.3492ZM32.6881 23.3333V20H30.6881V23.3333H32.6881ZM37.0271 23.3333V20H35.0271V23.3333H37.0271ZM39.2813 26.7778H19.756V28.7778H39.2813V26.7778ZM21.9254 41H37.1119V39H21.9254V41ZM37.1119 41C38.8849 41 40.2813 39.5346 40.2813 37.7778H38.2813C38.2813 38.4756 37.7353 39 37.1119 39V41ZM40.2813 37.7778V24.4444H38.2813V37.7778H40.2813ZM40.2813 24.4444C40.2813 22.6876 38.8849 21.2222 37.1119 21.2222V23.2222C37.7353 23.2222 38.2813 23.7466 38.2813 24.4444H40.2813ZM37.1119 21.2222H21.9254V23.2222H37.1119V21.2222ZM21.9254 21.2222C20.1525 21.2222 18.756 22.6876 18.756 24.4444H20.756C20.756 23.7467 21.3021 23.2222 21.9254 23.2222V21.2222ZM18.756 24.4444V37.7778H20.756V24.4444H18.756ZM18.756 37.7778C18.756 39.5346 20.1525 41 21.9254 41V39C21.302 39 20.756 38.4756 20.756 37.7778H18.756Z" fill="#234CAD"/>
</svg>
