<svg width="60" height="60" viewBox="0 0 60 60" fill="none" xmlns="http://www.w3.org/2000/svg">
<ellipse cx="29.9017" cy="30" rx="29.2881" ry="30" fill="#F2F6FF"/>
<path fill-rule="evenodd" clip-rule="evenodd" d="M25.7221 22.1521H35.0576C35.9169 22.1521 36.6136 22.8747 36.6136 23.7662V37.3978L31.2312 33.8084C30.7187 33.4667 30.061 33.4667 29.5485 33.8084L24.1661 37.3978V23.7662H24.1661C24.1661 22.8747 24.8627 22.1521 25.7221 22.1521ZM22.0916 23.7662H24.1661V23.7662H22.0916C22.0916 21.6862 23.717 20 25.7221 20H35.0576C37.0627 20 38.6882 21.6862 38.6882 23.7662V38.3833H37.1322H36.6136L36.6136 38.3834H37.1322H38.6882C38.6881 39.6603 37.3263 40.4316 36.2909 39.741L30.3899 35.8058L30.6674 35.6207L30.6703 35.6188L30.6703 35.6187L30.6674 35.6207C30.498 35.7321 30.2817 35.7321 30.1123 35.6207L30.1094 35.6187L30.1094 35.6188L30.1123 35.6207L30.3899 35.8058L24.4889 39.741L23.6475 38.3833L24.4889 39.741C23.4534 40.4316 22.0916 39.6603 22.0916 38.3833V23.7662ZM24.1661 37.3978V38.3833C24.1661 37.9577 23.7122 37.7006 23.367 37.9308L23.367 37.9307L24.1661 37.3978ZM36.6136 37.3978L37.4127 37.9307C37.0683 37.7011 36.6157 37.9564 36.6136 38.3803V37.3978Z" fill="#234CAD"/>
</svg>
