<svg width="98" height="100" viewBox="0 0 98 100" fill="none" xmlns="http://www.w3.org/2000/svg">
<ellipse cx="49.139" cy="50" rx="48.8136" ry="50" fill="#F2F6FF"/>
<path d="M39.8288 47C39.8288 47.8284 40.5004 48.5 41.3288 48.5C42.1573 48.5 42.8288 47.8284 42.8288 47H39.8288ZM55.4492 47C55.4492 47.8284 56.1208 48.5 56.9492 48.5C57.7776 48.5 58.4492 47.8284 58.4492 47H55.4492ZM41.3288 48.5C42.1573 48.5 42.8288 47.8284 42.8288 47C42.8288 46.1716 42.1573 45.5 41.3288 45.5V48.5ZM56.9492 45.5C56.1208 45.5 55.4492 46.1716 55.4492 47C55.4492 47.8284 56.1208 48.5 56.9492 48.5V45.5ZM41.3288 45.5C40.5004 45.5 39.8288 46.1716 39.8288 47C39.8288 47.8284 40.5004 48.5 41.3288 48.5V45.5ZM56.9492 48.5C57.7776 48.5 58.4492 47.8284 58.4492 47C58.4492 46.1716 57.7776 45.5 56.9492 45.5V48.5ZM42.8288 47V37H39.8288V47H42.8288ZM42.8288 37C42.8288 33.376 45.6877 30.5 49.139 30.5V27.5C43.9634 27.5 39.8288 31.7875 39.8288 37H42.8288ZM49.139 30.5C52.5902 30.5 55.4492 33.376 55.4492 37H58.4492C58.4492 31.7874 54.3145 27.5 49.139 27.5V30.5ZM55.4492 37V47H58.4492V37H55.4492ZM41.3288 45.5H39.3763V48.5H41.3288V45.5ZM39.3763 45.5C36.3574 45.5 33.9712 47.9965 33.9712 51H36.9712C36.9712 49.5851 38.0817 48.5 39.3763 48.5V45.5ZM33.9712 51V63H36.9712V51H33.9712ZM33.9712 63C33.9712 68.2125 38.1057 72.5 43.2814 72.5V69.5C39.8301 69.5 36.9712 66.6239 36.9712 63H33.9712ZM43.2814 72.5H54.9966V69.5H43.2814V72.5ZM54.9966 72.5C60.1722 72.5 64.3068 68.2125 64.3068 63H61.3068C61.3068 66.6239 58.4478 69.5 54.9966 69.5V72.5ZM64.3068 63V51H61.3068V63H64.3068ZM64.3068 51C64.3068 47.9965 61.9207 45.5 58.9017 45.5V48.5C60.1963 48.5 61.3068 49.5851 61.3068 51H64.3068ZM58.9017 45.5H56.9492V48.5H58.9017V45.5ZM41.3288 48.5H56.9492V45.5H41.3288V48.5ZM48.6153 59C48.6153 58.758 48.816 58.5 49.139 58.5V61.5C50.5404 61.5 51.6153 60.3466 51.6153 59H48.6153ZM49.139 58.5C49.462 58.5 49.6627 58.758 49.6627 59H46.6627C46.6627 60.3466 47.7376 61.5 49.139 61.5V58.5ZM49.6627 59C49.6627 59.242 49.462 59.5 49.139 59.5V56.5C47.7376 56.5 46.6627 57.6534 46.6627 59H49.6627ZM49.139 59.5C48.816 59.5 48.6153 59.242 48.6153 59H51.6153C51.6153 57.6534 50.5404 56.5 49.139 56.5V59.5Z" fill="#234CAD"/>
</svg>
