<svg width="72" height="72" viewBox="0 0 72 72" fill="none" xmlns="http://www.w3.org/2000/svg">
<ellipse cx="35.9491" cy="36" rx="24.4068" ry="25" fill="#F2F6FF"/>
<path d="M31.2896 43.3158C31.8419 43.3158 32.2896 42.8681 32.2896 42.3158C32.2896 41.7635 31.8419 41.3158 31.2896 41.3158V43.3158ZM30.624 34.2632V35.2632H31.624V34.2632H30.624ZM41.2742 34.2632H40.2742V35.2632H41.2742V34.2632ZM40.6086 41.3158C40.0563 41.3158 39.6086 41.7635 39.6086 42.3158C39.6086 42.8681 40.0563 43.3158 40.6086 43.3158V41.3158ZM34.9491 45C34.9491 45.5523 35.3968 46 35.9491 46C36.5014 46 36.9491 45.5523 36.9491 45H34.9491ZM36.9491 36.9474C36.9491 36.3951 36.5014 35.9474 35.9491 35.9474C35.3968 35.9474 34.9491 36.3951 34.9491 36.9474H36.9491ZM36.6591 37.6516C37.048 37.2595 37.0454 36.6263 36.6533 36.2374C36.2612 35.8485 35.6281 35.851 35.2391 36.2431L36.6591 37.6516ZM32.5766 38.9273C32.1877 39.3194 32.1902 39.9526 32.5823 40.3415C32.9744 40.7305 33.6076 40.7279 33.9965 40.3358L32.5766 38.9273ZM36.6591 36.2431C36.2701 35.851 35.637 35.8485 35.2449 36.2374C34.8528 36.6264 34.8502 37.2595 35.2391 37.6516L36.6591 36.2431ZM37.9017 40.3358C38.2907 40.7279 38.9238 40.7305 39.3159 40.3415C39.708 39.9526 39.7106 39.3194 39.3217 38.9273L37.9017 40.3358ZM31.2896 41.3158H30.1802V43.3158H31.2896V41.3158ZM30.1802 41.3158C28.5344 41.3158 27.1864 39.9685 27.1864 38.2895H25.1864C25.1864 41.0578 27.4146 43.3158 30.1802 43.3158V41.3158ZM27.1864 38.2895C27.1864 36.6104 28.5344 35.2632 30.1802 35.2632V33.2632C27.4146 33.2632 25.1864 35.5212 25.1864 38.2895H27.1864ZM30.1802 35.2632H30.624V33.2632H30.1802V35.2632ZM31.624 34.2632V33.3684H29.624V34.2632H31.624ZM31.624 33.3684C31.624 30.9482 33.568 29 35.9491 29V27C32.4482 27 29.624 29.8589 29.624 33.3684H31.624ZM35.9491 29C38.3302 29 40.2742 30.9482 40.2742 33.3684H42.2742C42.2742 29.8589 39.45 27 35.9491 27V29ZM40.2742 33.3684V34.2632H42.2742V33.3684H40.2742ZM41.2742 35.2632H41.718V33.2632H41.2742V35.2632ZM41.718 35.2632C43.3639 35.2632 44.7119 36.6104 44.7119 38.2895H46.7119C46.7119 35.5212 44.4837 33.2632 41.718 33.2632V35.2632ZM44.7119 38.2895C44.7119 39.9685 43.3639 41.3158 41.718 41.3158V43.3158C44.4837 43.3158 46.7119 41.0578 46.7119 38.2895H44.7119ZM41.718 41.3158H40.6086V43.3158H41.718V41.3158ZM36.9491 45V36.9474H34.9491V45H36.9491ZM35.2391 36.2431L32.5766 38.9273L33.9965 40.3358L36.6591 37.6516L35.2391 36.2431ZM35.2391 37.6516L37.9017 40.3358L39.3217 38.9273L36.6591 36.2431L35.2391 37.6516Z" fill="#234CAD"/>
<path d="M1.7796 36C1.7796 55.33 17.0778 71 35.9491 71C54.8204 71 70.1186 55.33 70.1186 36C70.1186 16.67 54.8204 1 35.9491 1" stroke="#234CAD" stroke-width="2" stroke-linecap="round" stroke-linejoin="round"/>
</svg>
