<svg width="54" height="54" viewBox="0 0 54 54" fill="none" xmlns="http://www.w3.org/2000/svg">
<path d="M52.3153 31C52.3153 14.4315 39.2026 1 23.0272 1" stroke="#234CAD" stroke-width="2" stroke-linecap="round" stroke-linejoin="round"/>
<ellipse cx="23.0272" cy="31" rx="22.4542" ry="23" fill="#F2F6FF"/>
<path d="M18.3677 38.3158C18.92 38.3158 19.3677 37.8681 19.3677 37.3158C19.3677 36.7635 18.92 36.3158 18.3677 36.3158V38.3158ZM17.7021 29.2632V30.2632H18.7021V29.2632H17.7021ZM28.3523 29.2632H27.3523V30.2632H28.3523V29.2632ZM27.6867 36.3158C27.1344 36.3158 26.6867 36.7635 26.6867 37.3158C26.6867 37.8681 27.1344 38.3158 27.6867 38.3158V36.3158ZM22.0272 40C22.0272 40.5523 22.4749 41 23.0272 41C23.5794 41 24.0272 40.5523 24.0272 40H22.0272ZM24.0272 31.9474C24.0272 31.3951 23.5794 30.9474 23.0272 30.9474C22.4749 30.9474 22.0272 31.3951 22.0272 31.9474H24.0272ZM23.7372 32.6516C24.1261 32.2595 24.1235 31.6263 23.7314 31.2374C23.3393 30.8485 22.7062 30.851 22.3172 31.2431L23.7372 32.6516ZM19.6547 33.9274C19.2657 34.3195 19.2683 34.9526 19.6604 35.3416C20.0525 35.7305 20.6857 35.7279 21.0746 35.3358L19.6547 33.9274ZM23.7372 31.2431C23.3482 30.851 22.7151 30.8485 22.323 31.2374C21.9309 31.6263 21.9283 32.2595 22.3172 32.6516L23.7372 31.2431ZM24.9798 35.3358C25.3687 35.7279 26.0019 35.7305 26.394 35.3416C26.7861 34.9526 26.7886 34.3195 26.3997 33.9274L24.9798 35.3358ZM18.3677 36.3158H17.2583V38.3158H18.3677V36.3158ZM17.2583 36.3158C15.6125 36.3158 14.2645 34.9685 14.2645 33.2895H12.2645C12.2645 36.0578 14.4927 38.3158 17.2583 38.3158V36.3158ZM14.2645 33.2895C14.2645 31.6104 15.6125 30.2632 17.2583 30.2632V28.2632C14.4927 28.2632 12.2645 30.5212 12.2645 33.2895H14.2645ZM17.2583 30.2632H17.7021V28.2632H17.2583V30.2632ZM18.7021 29.2632V28.3684H16.7021V29.2632H18.7021ZM18.7021 28.3684C18.7021 25.9482 20.6461 24 23.0272 24V22C19.5263 22 16.7021 24.8589 16.7021 28.3684H18.7021ZM23.0272 24C25.4083 24 27.3523 25.9482 27.3523 28.3684H29.3523C29.3523 24.8589 26.5281 22 23.0272 22V24ZM27.3523 28.3684V29.2632H29.3523V28.3684H27.3523ZM28.3523 30.2632H28.7961V28.2632H28.3523V30.2632ZM28.7961 30.2632C30.4419 30.2632 31.7899 31.6104 31.7899 33.2895H33.7899C33.7899 30.5212 31.5617 28.2632 28.7961 28.2632V30.2632ZM31.7899 33.2895C31.7899 34.9685 30.4419 36.3158 28.7961 36.3158V38.3158C31.5617 38.3158 33.7899 36.0578 33.7899 33.2895H31.7899ZM28.7961 36.3158H27.6867V38.3158H28.7961V36.3158ZM24.0272 40V31.9474H22.0272V40H24.0272ZM22.3172 31.2431L19.6547 33.9274L21.0746 35.3358L23.7372 32.6516L22.3172 31.2431ZM22.3172 32.6516L24.9798 35.3358L26.3997 33.9274L23.7372 31.2431L22.3172 32.6516Z" fill="#234CAD"/>
</svg>
