<svg width="72" height="73" viewBox="0 0 72 73" fill="none" xmlns="http://www.w3.org/2000/svg">
<ellipse cx="35.9322" cy="36.782" rx="24.4068" ry="25" fill="#F2F6FF"/>
<path d="M31.2727 44.0978C31.825 44.0978 32.2727 43.6501 32.2727 43.0978C32.2727 42.5456 31.825 42.0978 31.2727 42.0978V44.0978ZM30.6071 35.0452V36.0452H31.6071V35.0452H30.6071ZM41.2573 35.0452H40.2573V36.0452H41.2573V35.0452ZM40.5917 42.0978C40.0394 42.0978 39.5917 42.5456 39.5917 43.0978C39.5917 43.6501 40.0394 44.0978 40.5917 44.0978V42.0978ZM34.9322 45.782C34.9322 46.3343 35.3799 46.782 35.9322 46.782C36.4845 46.782 36.9322 46.3343 36.9322 45.782H34.9322ZM36.9322 37.7294C36.9322 37.1771 36.4845 36.7294 35.9322 36.7294C35.3799 36.7294 34.9322 37.1771 34.9322 37.7294H36.9322ZM36.6422 38.4336C37.0311 38.0415 37.0285 37.4083 36.6364 37.0194C36.2443 36.6305 35.6111 36.633 35.2222 37.0251L36.6422 38.4336ZM32.5597 39.7094C32.1707 40.1015 32.1733 40.7347 32.5654 41.1236C32.9575 41.5125 33.5907 41.51 33.9796 41.1179L32.5597 39.7094ZM36.6422 37.0251C36.2532 36.633 35.6201 36.6305 35.228 37.0194C34.8359 37.4083 34.8333 38.0415 35.2222 38.4336L36.6422 37.0251ZM37.8848 41.1179C38.2738 41.51 38.9069 41.5125 39.299 41.1236C39.6911 40.7347 39.6937 40.1015 39.3048 39.7094L37.8848 41.1179ZM31.2727 42.0978H30.1633V44.0978H31.2727V42.0978ZM30.1633 42.0978C28.5175 42.0978 27.1695 40.7506 27.1695 39.0715H25.1695C25.1695 41.8398 27.3977 44.0978 30.1633 44.0978V42.0978ZM27.1695 39.0715C27.1695 37.3925 28.5175 36.0452 30.1633 36.0452V34.0452C27.3977 34.0452 25.1695 36.3032 25.1695 39.0715H27.1695ZM30.1633 36.0452H30.6071V34.0452H30.1633V36.0452ZM31.6071 35.0452V34.1505H29.6071V35.0452H31.6071ZM31.6071 34.1505C31.6071 31.7302 33.5511 29.782 35.9322 29.782V27.782C32.4313 27.782 29.6071 30.6409 29.6071 34.1505H31.6071ZM35.9322 29.782C38.3133 29.782 40.2573 31.7302 40.2573 34.1505H42.2573C42.2573 30.6409 39.4331 27.782 35.9322 27.782V29.782ZM40.2573 34.1505V35.0452H42.2573V34.1505H40.2573ZM41.2573 36.0452H41.7011V34.0452H41.2573V36.0452ZM41.7011 36.0452C43.347 36.0452 44.6949 37.3925 44.6949 39.0715H46.6949C46.6949 36.3032 44.4668 34.0452 41.7011 34.0452V36.0452ZM44.6949 39.0715C44.6949 40.7506 43.347 42.0978 41.7011 42.0978V44.0978C44.4668 44.0978 46.6949 41.8398 46.6949 39.0715H44.6949ZM41.7011 42.0978H40.5917V44.0978H41.7011V42.0978ZM36.9322 45.782V37.7294H34.9322V45.782H36.9322ZM35.2222 37.0251L32.5597 39.7094L33.9796 41.1179L36.6422 38.4336L35.2222 37.0251ZM35.2222 38.4336L37.8848 41.1179L39.3048 39.7094L36.6422 37.0251L35.2222 38.4336Z" fill="#234CAD"/>
<path d="M1.76273 36.782C1.76273 56.112 17.0609 71.782 35.9322 71.782C54.8035 71.782 70.1017 56.112 70.1017 36.782C70.1017 17.4521 54.8035 1.78204 35.9322 1.78204" stroke="#234CAD" stroke-width="2" stroke-linecap="round" stroke-linejoin="round"/>
</svg>
